<?xml version="1.0" standalone="no"?>
<!DOCTYPE svg PUBLIC "-//W3C//DTD SVG 20010904//EN"
 "http://www.w3.org/TR/2001/REC-SVG-20010904/DTD/svg10.dtd">
<svg version="1.0" xmlns="http://www.w3.org/2000/svg"
 width="632.000000pt" height="638.000000pt" viewBox="0 0 632.000000 638.000000"
 preserveAspectRatio="xMidYMid meet">
<metadata>
Created by potrace 1.16, written by Peter Selinger 2001-2019
</metadata>
<g transform="translate(0.000000,638.000000) scale(0.100000,-0.100000)"
fill="#f8f8f8" stroke="none">
<path d="M965 6181 l-440 -6 -70 -34 c-87 -43 -158 -115 -199 -201 l-31 -65
-3 -2610 c-1 -1648 1 -2633 7 -2673 6 -35 20 -84 32 -110 32 -66 126 -157 196
-190 l58 -27 2665 0 2665 0 58 27 c80 38 160 117 200 197 l32 66 0 2665 0
2665 -27 55 c-53 107 -130 177 -243 220 l-60 23 -2200 2 c-1210 1 -2398 -1
-2640 -4z m4815 -293 c26 -14 53 -37 65 -58 20 -35 20 -43 20 -2610 l0 -2575
-27 -47 c-27 -44 -31 -47 -80 -53 -29 -3 -1208 -5 -2620 -3 l-2566 3 -26 24
c-14 14 -30 41 -36 60 -6 23 -10 933 -10 2599 0 2521 0 2563 20 2601 17 34 43
53 100 74 8 3 1163 6 2565 6 l2551 1 44 -22z"/>
<path d="M1661 5225 c-229 -52 -408 -235 -457 -467 -41 -192 23 -404 163 -543
199 -197 532 -226 761 -65 167 117 255 290 254 500 -1 208 -100 385 -277 495
-130 80 -305 112 -444 80z m275 -302 c113 -59 187 -211 163 -337 -29 -155
-151 -258 -309 -260 -89 -1 -164 28 -225 89 -61 62 -90 135 -90 230 1 71 4 87
34 143 43 79 108 133 186 153 57 15 197 4 241 -18z"/>
<path d="M4194 2817 c-354 -369 -399 -416 -834 -877 -184 -195 -424 -448 -532
-561 -109 -114 -198 -211 -198 -217 0 -13 191 -193 201 -190 4 2 141 145 305
318 776 821 1368 1440 1375 1438 4 -2 150 -140 325 -308 175 -168 378 -362
452 -432 l133 -126 82 85 c44 46 87 93 94 103 12 17 -2 34 -154 182 -302 294
-889 851 -934 885 -13 11 -60 -34 -315 -300z"/>
<path d="M1932 2578 c-104 -112 -404 -434 -666 -717 l-478 -514 69 -69 c37
-38 84 -82 104 -98 l36 -29 229 246 c126 135 381 411 567 612 186 201 344 366
352 366 7 0 152 -130 320 -290 169 -159 313 -294 319 -299 8 -6 30 11 68 50
86 92 128 141 128 149 0 5 -37 42 -82 84 -46 42 -166 155 -268 251 -322 306
-490 460 -499 460 -5 0 -95 -91 -199 -202z"/>
</g>
</svg>
