<?xml version="1.0" standalone="no"?>
<!DOCTYPE svg PUBLIC "-//W3C//DTD SVG 20010904//EN"
 "http://www.w3.org/TR/2001/REC-SVG-20010904/DTD/svg10.dtd">
<svg version="1.0" xmlns="http://www.w3.org/2000/svg"
 width="502.000000pt" height="507.000000pt" viewBox="0 0 502.000000 507.000000"
 preserveAspectRatio="xMidYMid meet">
<g transform="translate(0.000000,507.000000) scale(0.100000,-0.100000)"
fill="#14a6f4" stroke="none">
<path d="M1525 3689 c-441 -56 -825 -375 -948 -789 -42 -141 -51 -199 -51
-345 0 -321 118 -603 343 -823 88 -85 251 -193 353 -232 167 -65 257 -82 428
-83 220 -1 361 31 545 126 368 190 615 595 615 1006 0 37 9 103 20 145 77 301
366 494 670 447 41 -7 76 -14 79 -17 3 -2 -144 -154 -327 -337 -258 -259 -332
-338 -332 -358 0 -50 68 -169 133 -233 59 -58 193 -136 232 -136 8 0 258 243
556 541 488 488 540 543 531 563 -20 43 -104 145 -177 215 -285 271 -672 374
-1060 282 -412 -98 -728 -411 -836 -828 -11 -43 -24 -136 -30 -208 -13 -177
-25 -239 -58 -310 -62 -133 -174 -245 -306 -305 -260 -119 -571 -28 -733 213
-73 109 -97 195 -96 337 1 98 4 125 26 182 62 164 158 273 302 343 118 58 208
72 339 56 50 -7 94 -14 96 -17 3 -3 -147 -157 -333 -343 -302 -302 -337 -341
-331 -362 4 -13 25 -59 47 -102 59 -114 158 -198 289 -244 l48 -17 307 313
308 313 22 107 c39 188 109 349 217 494 l59 79 -34 35 c-51 54 -219 162 -318
204 -195 84 -393 113 -595 88z"/>
<path d="M4006 2538 c-2 -7 -10 -50 -19 -95 -23 -124 -75 -221 -161 -308 -182
-182 -448 -227 -680 -115 -91 44 -161 107 -255 229 l-18 25 -18 -55 c-49 -151
-119 -290 -210 -415 l-45 -62 50 -46 c96 -90 264 -185 410 -230 285 -90 593
-66 859 68 201 101 387 280 494 476 69 125 137 378 137 508 l0 32 -270 0
c-208 0 -271 -3 -274 -12z"/>
</g>
</svg>
